# Hierarchical Translation and Rotation (.htr) file
# Generated by EVaRT
[Header]
FileType htr
DataType HTRS
FileVersion 1
NumSegments 23
NumFrames 4
DataFrameRate 120
EulerRotationOrder ZYX
CalibrationUnits mm
RotationUnits Degrees
GlobalAxisofGravity Y
BoneLengthAxis Y
ScaleFactor 1
[SegmentNames&Hierarchy]
#CHILD            PARENT
DaveRoot          GLOBAL
Spine1            DaveRoot
Spine2            Spine1
Spine3            Spine2
Spine4            Spine3
Neck              Spine4
Head              Neck
LClavicle         Spine4
LUpperArm         LClavicle
LLowerArm         LUpperArm
LHand             LLowerArm
RClavicle         Spine4
RUpperArm         RClavicle
RLowerArm         RUpperArm
RHand             RLowerArm
RUpperLeg         DaveRoot
RLowerLeg         RUpperLeg
RFoot             RLowerLeg
RToes             RFoot
LUpperLeg         DaveRoot
LLowerLeg         LUpperLeg
LFoot             LLowerLeg
LToes             LFoot
[BasePosition]
#SegmentName      Tx   Ty   Tz   Rx   Ry   Rz   BoneLength
DaveRoot          9999999.000000	9999999.000000	9999999.000000	9999999.000000	9999999.000000	9999999.000000	9999999.000000
Spine1            9999999.000000	9999999.000000	9999999.000000	9999999.000000	9999999.000000	9999999.000000	9999999.000000
Spine2            9999999.000000	9999999.000000	9999999.000000	9999999.000000	9999999.000000	9999999.000000	9999999.000000
Spine3            9999999.000000	9999999.000000	9999999.000000	9999999.000000	9999999.000000	9999999.000000	9999999.000000
Spine4            9999999.000000	9999999.000000	9999999.000000	9999999.000000	9999999.000000	9999999.000000	9999999.000000
Neck              9999999.000000	9999999.000000	9999999.000000	9999999.000000	9999999.000000	9999999.000000	9999999.000000
Head              9999999.000000	9999999.000000	9999999.000000	9999999.000000	9999999.000000	9999999.000000	9999999.000000
LClavicle         9999999.000000	9999999.000000	9999999.000000	9999999.000000	9999999.000000	9999999.000000	9999999.000000
LUpperArm         9999999.000000	9999999.000000	9999999.000000	9999999.000000	9999999.000000	9999999.000000	9999999.000000
LLowerArm         9999999.000000	9999999.000000	9999999.000000	9999999.000000	9999999.000000	9999999.000000	9999999.000000
LHand             9999999.000000	9999999.000000	9999999.000000	9999999.000000	9999999.000000	9999999.000000	9999999.000000
RClavicle         9999999.000000	9999999.000000	9999999.000000	9999999.000000	9999999.000000	9999999.000000	9999999.000000
RUpperArm         9999999.000000	9999999.000000	9999999.000000	9999999.000000	9999999.000000	9999999.000000	9999999.000000
RLowerArm         9999999.000000	9999999.000000	9999999.000000	9999999.000000	9999999.000000	9999999.000000	9999999.000000
RHand             9999999.000000	9999999.000000	9999999.000000	9999999.000000	9999999.000000	9999999.000000	9999999.000000
RUpperLeg         9999999.000000	9999999.000000	9999999.000000	9999999.000000	9999999.000000	9999999.000000	9999999.000000
RLowerLeg         9999999.000000	9999999.000000	9999999.000000	9999999.000000	9999999.000000	9999999.000000	9999999.000000
RFoot             9999999.000000	9999999.000000	9999999.000000	9999999.000000	9999999.000000	9999999.000000	9999999.000000
RToes             9999999.000000	9999999.000000	9999999.000000	9999999.000000	9999999.000000	9999999.000000	9999999.000000
LUpperLeg         9999999.000000	9999999.000000	9999999.000000	9999999.000000	9999999.000000	9999999.000000	9999999.000000
LLowerLeg         9999999.000000	9999999.000000	9999999.000000	9999999.000000	9999999.000000	9999999.000000	9999999.000000
LFoot             9999999.000000	9999999.000000	9999999.000000	9999999.000000	9999999.000000	9999999.000000	9999999.000000
LToes             9999999.000000	9999999.000000	9999999.000000	9999999.000000	9999999.000000	9999999.000000	9999999.000000
#Beginning of Data.
[DaveRoot]
#Fr	Tx	Ty	Tz	Rx	Ry	Rz	SF
403	-10001000.544438	-9999081.622095	-10000182.195137	-8.689628	-71.677849	28.102815	0.000010	
404	-10001024.425756	-9999078.480717	-10000181.705046	-7.636125	-71.914293	27.331288	0.000010	
405	-10001047.224290	-9999074.004334	-10000181.614964	-4.827586	-72.231191	24.899157	0.000010	
406	-10001070.969328	-9999068.464771	-10000179.032969	-3.970370	-72.644811	24.616527	0.000010	
[Spine1]
#Fr	Tx	Ty	Tz	Rx	Ry	Rz	SF
403	-9999999.000000	-9999899.000000	-9999999.000000	0.229725	-0.987607	-2.021170	0.000010	
404	-9999999.000000	-9999899.000000	-9999999.000000	0.100332	-1.139165	-1.903949	0.000010	
405	-9999999.000000	-9999899.000000	-9999999.000000	0.099921	-1.494891	-1.603861	0.000010	
406	-9999999.000000	-9999899.000000	-9999999.000000	-0.055904	-1.740664	-1.405523	0.000010	
[Spine2]
#Fr	Tx	Ty	Tz	Rx	Ry	Rz	SF
403	-9999999.000000	-9999899.000000	-9999999.000000	0.229725	-0.987607	-2.021170	0.000010	
404	-9999999.000000	-9999899.000000	-9999999.000000	0.100332	-1.139165	-1.903949	0.000010	
405	-9999999.000000	-9999899.000000	-9999999.000000	0.099921	-1.494891	-1.603861	0.000010	
406	-9999999.000000	-9999899.000000	-9999999.000000	-0.055904	-1.740664	-1.405523	0.000010	
[Spine3]
#Fr	Tx	Ty	Tz	Rx	Ry	Rz	SF
403	-9999999.000000	-9999899.000000	-9999999.000000	0.229725	-0.987607	-2.021170	0.000010	
404	-9999999.000000	-9999899.000000	-9999999.000000	0.100332	-1.139165	-1.903949	0.000010	
405	-9999999.000000	-9999899.000000	-9999999.000000	0.099921	-1.494891	-1.603861	0.000010	
406	-9999999.000000	-9999899.000000	-9999999.000000	-0.055904	-1.740664	-1.405523	0.000010	
[Spine4]
#Fr	Tx	Ty	Tz	Rx	Ry	Rz	SF
403	-9999999.000000	-9999899.000000	-9999999.000000	0.229725	-0.987607	-2.021170	0.000010	
404	-9999999.000000	-9999899.000000	-9999999.000000	0.100332	-1.139165	-1.903949	0.000010	
405	-9999999.000000	-9999899.000000	-9999999.000000	0.099921	-1.494891	-1.603861	0.000010	
406	-9999999.000000	-9999899.000000	-9999999.000000	-0.055904	-1.740664	-1.405523	0.000010	
[Neck]
#Fr	Tx	Ty	Tz	Rx	Ry	Rz	SF
403	-9999999.000000	-9999899.000000	-9999999.000000	-12.130103	-15.113650	4.625384	0.000008	
404	-9999999.000000	-9999899.000000	-9999999.000000	-12.107130	-14.666938	4.613673	0.000008	
405	-9999999.000000	-9999899.000000	-9999999.000000	-12.627169	-13.982347	4.443441	0.000008	
406	-9999999.000000	-9999899.000000	-9999999.000000	-12.881923	-13.450460	3.934687	0.000008	
[Head]
#Fr	Tx	Ty	Tz	Rx	Ry	Rz	SF
403	-9999999.000000	-9999919.000000	-9999999.000000	-12.130103	-15.113650	4.625384	0.000020	
404	-9999999.000000	-9999919.000000	-9999999.000000	-12.107130	-14.666938	4.613673	0.000020	
405	-9999999.000000	-9999919.000000	-9999999.000000	-12.627169	-13.982347	4.443441	0.000020	
406	-9999999.000000	-9999919.000000	-9999999.000000	-12.881923	-13.450460	3.934687	0.000020	
[LClavicle]
#Fr	Tx	Ty	Tz	Rx	Ry	Rz	SF
403	-9999999.000000	-9999899.000000	-9999999.000000	7.428142	-0.530625	5.584901	0.000020	
404	-9999999.000000	-9999899.000000	-9999999.000000	7.764660	-0.482297	5.054402	0.000020	
405	-9999999.000000	-9999899.000000	-9999999.000000	8.009655	-0.715146	6.590764	0.000020	
406	-9999999.000000	-9999899.000000	-9999999.000000	7.680362	-0.559186	5.661094	0.000020	
[LUpperArm]
#Fr	Tx	Ty	Tz	Rx	Ry	Rz	SF
403	-9999999.000000	-9999799.000000	-9999999.000000	39.722183	14.967944	-48.430339	0.000030	
404	-9999999.000000	-9999799.000000	-9999999.000000	40.025925	14.112492	-48.174356	0.000030	
405	-9999999.000000	-9999799.000000	-9999999.000000	39.280370	14.185683	-50.242188	0.000030	
406	-9999999.000000	-9999799.000000	-9999999.000000	39.650518	13.352704	-50.055213	0.000030	
[LLowerArm]
#Fr	Tx	Ty	Tz	Rx	Ry	Rz	SF
403	-9999999.000000	-9999699.000000	-9999999.000000	122.691823	0.000000	0.000000	0.000020	
404	-9999999.000000	-9999699.000000	-9999999.000000	122.558510	0.000000	0.000000	0.000020	
405	-9999999.000000	-9999699.000000	-9999999.000000	122.897654	0.000000	0.000000	0.000020	
406	-9999999.000000	-9999699.000000	-9999999.000000	122.626708	0.000000	0.000000	0.000020	
[LHand]
#Fr	Tx	Ty	Tz	Rx	Ry	Rz	SF
403	-9999999.000000	-9999799.000000	-9999999.000000	9.037965	0.000000	-0.000000	0.000012	
404	-9999999.000000	-9999799.000000	-9999999.000000	7.939958	0.000000	-0.000000	0.000012	
405	-9999999.000000	-9999799.000000	-9999999.000000	7.663492	0.000000	-0.000000	0.000012	
406	-9999999.000000	-9999799.000000	-9999999.000000	8.281335	0.000000	-0.000000	0.000012	
[RClavicle]
#Fr	Tx	Ty	Tz	Rx	Ry	Rz	SF
403	-9999999.000000	-9999899.000000	-9999999.000000	4.153240	-0.257272	3.736524	0.000020	
404	-9999999.000000	-9999899.000000	-9999999.000000	4.750330	-0.289535	3.677980	0.000020	
405	-9999999.000000	-9999899.000000	-9999999.000000	4.509218	-0.296790	3.955991	0.000020	
406	-9999999.000000	-9999899.000000	-9999999.000000	4.328977	-0.291835	4.047462	0.000020	
[RUpperArm]
#Fr	Tx	Ty	Tz	Rx	Ry	Rz	SF
403	-9999999.000000	-9999799.000000	-9999999.000000	171.811795	-6.860460	-117.115156	0.000030	
404	-9999999.000000	-9999799.000000	-9999999.000000	173.763434	-7.512231	-117.006459	0.000030	
405	-9999999.000000	-9999799.000000	-9999999.000000	173.738195	-7.364833	-117.912221	0.000030	
406	-9999999.000000	-9999799.000000	-9999999.000000	174.490597	-6.478473	-118.879718	0.000030	
[RLowerArm]
#Fr	Tx	Ty	Tz	Rx	Ry	Rz	SF
403	-9999999.000000	-9999699.000000	-9999999.000000	-77.598796	0.000000	0.000000	0.000020	
404	-9999999.000000	-9999699.000000	-9999999.000000	-78.872744	0.000000	0.000000	0.000020	
405	-9999999.000000	-9999699.000000	-9999999.000000	-79.456520	0.000000	0.000000	0.000020	
406	-9999999.000000	-9999699.000000	-9999999.000000	-80.042606	0.000000	0.000000	0.000020	
[RHand]
#Fr	Tx	Ty	Tz	Rx	Ry	Rz	SF
403	-9999999.000000	-9999799.000000	-9999999.000000	-102.622436	60.814028	-122.061205	0.000012	
404	-9999999.000000	-9999799.000000	-9999999.000000	-102.569034	61.739568	-122.839862	0.000012	
405	-9999999.000000	-9999799.000000	-9999999.000000	-103.441491	61.939229	-124.920579	0.000012	
406	-9999999.000000	-9999799.000000	-9999999.000000	-103.060679	61.276383	-123.809190	0.000012	
[RUpperLeg]
#Fr	Tx	Ty	Tz	Rx	Ry	Rz	SF
403	-10000114.911102	-10000009.000000	-9999967.941715	30.967836	-2.994865	1.769879	0.000053	
404	-10000114.911102	-10000009.000000	-9999967.941715	33.159326	-3.599595	2.153826	0.000053	
405	-10000114.911102	-10000009.000000	-9999967.941715	35.236955	-3.969669	3.477352	0.000053	
406	-10000114.911102	-10000009.000000	-9999967.941715	37.448870	-4.575241	3.748369	0.000053	
[RLowerLeg]
#Fr	Tx	Ty	Tz	Rx	Ry	Rz	SF
403	-9999999.000000	-9999469.000000	-9999999.000000	-95.446449	-0.000000	0.000000	0.000046	
404	-9999999.000000	-9999469.000000	-9999999.000000	-94.999591	-0.000000	0.000000	0.000046	
405	-9999999.000000	-9999469.000000	-9999999.000000	-93.909824	-0.000000	0.000000	0.000046	
406	-9999999.000000	-9999469.000000	-9999999.000000	-92.469948	-0.000000	0.000000	0.000046	
[RFoot]
#Fr	Tx	Ty	Tz	Rx	Ry	Rz	SF
403	-9999999.000000	-9999539.000000	-9999999.000000	-18.300853	-15.807753	-16.561662	0.000013	
404	-9999999.000000	-9999539.000000	-9999999.000000	-16.835478	-15.744285	-16.682769	0.000013	
405	-9999999.000000	-9999539.000000	-9999999.000000	-16.261392	-15.115042	-17.131418	0.000013	
406	-9999999.000000	-9999539.000000	-9999999.000000	-15.485511	-17.627678	-17.329770	0.000013	
[RToes]
#Fr	Tx	Ty	Tz	Rx	Ry	Rz	SF
403	-9999999.000000	-9999869.000000	-9999999.000000	11.236047	0.000000	-0.000000	0.000010	
404	-9999999.000000	-9999869.000000	-9999999.000000	11.188459	-0.000000	-0.000000	0.000010	
405	-9999999.000000	-9999869.000000	-9999999.000000	10.699499	-0.000000	-0.000000	0.000010	
406	-9999999.000000	-9999869.000000	-9999999.000000	12.761655	0.000000	-0.000000	0.000010	
[LUpperLeg]
#Fr	Tx	Ty	Tz	Rx	Ry	Rz	SF
403	-9999883.088898	-10000009.000000	-9999967.941715	21.699268	7.294788	-6.767183	0.000053	
404	-9999883.088898	-10000009.000000	-9999967.941715	20.101350	7.297413	-6.355565	0.000053	
405	-9999883.088898	-10000009.000000	-9999967.941715	18.580231	7.138671	-5.433012	0.000053	
406	-9999883.088898	-10000009.000000	-9999967.941715	16.839265	7.436770	-5.219616	0.000053	
[LLowerLeg]
#Fr	Tx	Ty	Tz	Rx	Ry	Rz	SF
403	-9999999.000000	-9999469.000000	-9999999.000000	-33.197298	0.000000	-0.000000	0.000046	
404	-9999999.000000	-9999469.000000	-9999999.000000	-32.145824	0.000000	-0.000000	0.000046	
405	-9999999.000000	-9999469.000000	-9999999.000000	-30.762918	0.000000	-0.000000	0.000046	
406	-9999999.000000	-9999469.000000	-9999999.000000	-28.826300	0.000000	-0.000000	0.000046	
[LFoot]
#Fr	Tx	Ty	Tz	Rx	Ry	Rz	SF
403	-9999999.000000	-9999539.000000	-9999999.000000	19.641763	14.283541	-0.736011	0.000013	
404	-9999999.000000	-9999539.000000	-9999999.000000	20.096787	14.204394	-0.642774	0.000013	
405	-9999999.000000	-9999539.000000	-9999999.000000	20.031284	15.170750	-0.163363	0.000013	
406	-9999999.000000	-9999539.000000	-9999999.000000	19.706888	12.377680	-1.419072	0.000013	
[LToes]
#Fr	Tx	Ty	Tz	Rx	Ry	Rz	SF
403	-9999999.000000	-9999869.000000	-9999999.000000	1.577613	0.000000	-0.000000	0.000010	
404	-9999999.000000	-9999869.000000	-9999999.000000	1.904661	0.000000	-0.000000	0.000010	
405	-9999999.000000	-9999869.000000	-9999999.000000	3.193535	0.000000	-0.000000	0.000010	
406	-9999999.000000	-9999869.000000	-9999999.000000	0.859722	0.000000	-0.000000	0.000010	
